# xmcd
#
# Track frame offsets: 
#        300
#        15125
#        33600
#        52748
#        75916
#        96843
#        124418
#        142703
#        162376
#        185443
#        205643
#        225815
#        242300
#
# Disc length: 3553 seconds
#
# Revision: 3
# Processed by: cddbd v1.5.2PL0 Copyright (c) Steve Scherf et al.
# Submitted via: ExactAudioCopy v1.0b1
#
DISCID=890ddd0d
DTITLE=Bernard Allison - Higher Power
DYEAR=2004
DGENRE=Modern Electric Blues
TTITLE0=I've Learned My Lesson
TTITLE1=Raggedy And Dirty
TTITLE2=Standing On The Edge Of Love
TTITLE3=Stay With Me Tonight
TTITLE4=Too Cool
TTITLE5=It's A Man Down There
TTITLE6=New Life I'm In
TTITLE7=Woman Named Trouble
TTITLE8=Time Flies By
TTITLE9=Stakes Have Gone Up
TTITLE10=Into My Life
TTITLE11=Next 2 U
TTITLE12=Ami
EXTD=
EXTT0=
EXTT1=
EXTT2=
EXTT3=
EXTT4=
EXTT5=
EXTT6=
EXTT7=
EXTT8=
EXTT9=
EXTT10=
EXTT11=
EXTT12=
PLAYORDER=
